<svg xmlns="http://www.w3.org/2000/svg" width="50" height="50" viewBox="0 0 24 24">
    <path fill="#FFD700" d="M12 0c-1.657 0-3 1.343-3 3 0 .339.046.671.134.988-.331.188-.647.402-.938.645C6.548 6.08 6 7.47 6 9c0 3 3 11 6 11s6-8 6-11c0-1.53-.548-2.92-1.196-4.367-.291-.243-.607-.457-.938-.645.088-.317.134-.649.134-.988 0-1.657-1.343-3-3-3zm0 1c1.104 0 2 .896 2 2 0 .353-.073.693-.2 1h-3.6c-.127-.307-.2-.647-.2-1 0-1.104.896-2 2-2zm-2.95 3h5.9c.163.3.292.623.392.963-.191.112-.379.232-.558.367-.437.332-.894.768-1.283 1.37-.087.136-.169.274-.247.414-.271.484-.559 1.056-.859 1.738-.301-.682-.588-1.254-.859-1.738-.078-.14-.16-.278-.247-.414-.389-.602-.846-1.038-1.283-1.37-.179-.135-.367-.255-.558-.367.1-.34.229-.663.392-.963zm1.184 3.057c.149.218.292.446.431.681.306.51.567 1.045.784 1.531-.256.237-.474.477-.665.709-.191-.232-.409-.472-.665-.709.217-.486.478-1.021.784-1.531.139-.235.282-.463.431-.681zm4.532 0c.149.218.292.446.431.681.306.51.567 1.045.784 1.531-.256.237-.474.477-.665.709-.191-.232-.409-.472-.665-.709.217-.486.478-1.021.784-1.531.139-.235.282-.463.431-.681zm-5.184 3.682c.1.245.198.504.298.765.05.13.1.262.151.393-.15.166-.285.334-.412.501-.126-.167-.262-.335-.412-.501.05-.131.101-.263.151-.393.1-.261.198-.52.298-.765zm4.532 0c.1.245.198.504.298.765.05.13.1.262.151.393-.15.166-.285.334-.412.501-.126-.167-.262-.335-.412-.501.05-.131.101-.263.151-.393.1-.261.198-.52.298-.765z"/>
</svg>
  